<svg width="58" height="59" viewBox="0 0 58 59" fill="none" xmlns="http://www.w3.org/2000/svg">
<g filter="url(#filter0_b_4_7858)">
<rect width="58" height="59" rx="20" fill="url(#paint0_linear_4_7858)" fill-opacity="0.6"/>
<rect x="0.3" y="0.3" width="57.4" height="58.4" rx="19.7" stroke="url(#paint1_linear_4_7858)" stroke-opacity="0.65" stroke-width="0.6"/>
</g>
<path d="M29.2725 12.0136L29.5 12C29.9763 12.0001 30.4359 12.1749 30.7918 12.4914C31.1477 12.8079 31.3751 13.244 31.4308 13.7169L31.4444 13.9444V27.5556H45.0556C45.5318 27.5556 45.9915 27.7305 46.3474 28.0469C46.7033 28.3634 46.9307 28.7995 46.9864 29.2725L47 29.5C46.9999 29.9763 46.8251 30.4359 46.5086 30.7918C46.1921 31.1477 45.756 31.3751 45.2831 31.4308L45.0556 31.4444H31.4444V45.0556C31.4444 45.5318 31.2695 45.9915 30.9531 46.3474C30.6366 46.7033 30.2005 46.9307 29.7275 46.9864L29.5 47C29.0237 46.9999 28.5641 46.8251 28.2082 46.5086C27.8523 46.1921 27.6249 45.756 27.5692 45.2831L27.5556 45.0556V31.4444H13.9444C13.4682 31.4444 13.0085 31.2695 12.6526 30.9531C12.2967 30.6366 12.0693 30.2005 12.0136 29.7275L12 29.5C12.0001 29.0237 12.1749 28.5641 12.4914 28.2082C12.8079 27.8523 13.244 27.6249 13.7169 27.5692L13.9444 27.5556H27.5556V13.9444C27.5556 13.4682 27.7305 13.0085 28.0469 12.6526C28.3634 12.2967 28.7995 12.0693 29.2725 12.0136L29.5 12L29.2725 12.0136Z" fill="#F8F8F8"/>
<defs>
<filter id="filter0_b_4_7858" x="-100" y="-100" width="258" height="259" filterUnits="userSpaceOnUse" color-interpolation-filters="sRGB">
<feFlood flood-opacity="0" result="BackgroundImageFix"/>
<feGaussianBlur in="BackgroundImageFix" stdDeviation="50"/>
<feComposite in2="SourceAlpha" operator="in" result="effect1_backgroundBlur_4_7858"/>
<feBlend mode="normal" in="SourceGraphic" in2="effect1_backgroundBlur_4_7858" result="shape"/>
</filter>
<linearGradient id="paint0_linear_4_7858" x1="0" y1="0" x2="69.6432" y2="34.5661" gradientUnits="userSpaceOnUse">
<stop stop-color="white" stop-opacity="0.8"/>
<stop offset="1" stop-color="white" stop-opacity="0.2"/>
</linearGradient>
<linearGradient id="paint1_linear_4_7858" x1="0.450163" y1="0.470923" x2="69.5895" y2="34.8549" gradientUnits="userSpaceOnUse">
<stop stop-color="white"/>
<stop offset="1" stop-color="white" stop-opacity="0"/>
</linearGradient>
</defs>
</svg>


