<svg width="127" height="52" viewBox="0 0 127 52" fill="none" xmlns="http://www.w3.org/2000/svg">
<path d="M0 51.5C7.29013e-07 44.7369 1.64248 38.0401 4.83365 31.7918C8.02483 25.5435 12.7022 19.8662 18.5987 15.084C24.4952 10.3018 31.4954 6.50832 39.1996 3.9202C46.9038 1.33209 55.1611 -8.8687e-07 63.5 0C71.8389 8.86871e-07 80.0962 1.33209 87.8004 3.92021C95.5046 6.50833 102.505 10.3018 108.401 15.084C114.298 19.8662 118.975 25.5435 122.166 31.7918C125.358 38.0401 127 44.7369 127 51.5L120.821 51.5C120.821 45.395 119.338 39.3498 116.458 33.7095C113.577 28.0693 109.355 22.9444 104.032 18.6275C98.7094 14.3106 92.3903 10.8863 85.4358 8.55003C78.4813 6.21375 71.0275 5.01128 63.5 5.01128C55.9725 5.01128 48.5187 6.21375 41.5642 8.55002C34.6097 10.8863 28.2907 14.3106 22.9679 18.6275C17.6452 22.9444 13.4229 28.0693 10.5423 33.7095C7.66162 39.3498 6.17896 45.395 6.17896 51.5L0 51.5Z" fill="url(#paint0_linear_4_8426)"/>
<defs>
<linearGradient id="paint0_linear_4_8426" x1="135.015" y1="38.0959" x2="-28.5782" y2="48.8854" gradientUnits="userSpaceOnUse">
<stop offset="0.154645" stop-color="#C4C4C4"/>
<stop offset="0.813336" stop-color="#ED3C3C" stop-opacity="0.304914"/>
<stop offset="1" stop-color="#FF0000" stop-opacity="0"/>
</linearGradient>
</defs>
</svg>
